<svg width="282" height="138" viewBox="0 0 282 138" fill="none" xmlns="http://www.w3.org/2000/svg">
<g clip-path="url(#clip0_400_6827)">
<path d="M234.812 35.9917C234.791 33.9211 234.858 31.1056 235.216 28.2228C236.992 27.3012 238.789 26.632 240.636 26.2112C240.636 26.0386 240.649 25.7567 240.683 25.3863C240.716 25.0118 240.771 24.5488 240.864 24.0228C239.075 24.3763 237.32 24.936 235.611 25.6977C236.483 21.1484 238.027 18.0047 240.131 16.5527C240.611 16.2203 240.729 15.5679 240.397 15.0882C240.064 14.6084 239.412 14.4906 238.932 14.8188C237.48 15.8205 236.276 17.365 235.325 19.4313C234.307 17.8153 232.72 15.509 231.121 14.0234C231.121 14.0866 231.121 14.1202 231.121 14.1202C230.427 14.4864 229.703 14.7641 228.966 14.9661C228.966 14.9661 228.971 14.9703 228.975 14.9746C231.087 16.4517 233.625 20.6307 234.383 21.9269C233.882 23.5304 233.49 25.3484 233.208 27.3895C232.767 30.609 232.687 33.7485 232.708 36.0211C233.394 35.9664 234.096 35.958 234.816 35.9917H234.812Z" fill="#57C931"/>
<path d="M259.844 47.2747C256.944 42.3592 249.457 42.86 249.457 42.86C244.121 38.0707 239.184 36.1895 234.812 35.9875C234.092 35.9539 233.389 35.9665 232.703 36.017C222.081 36.8377 215.331 47.2662 215.331 47.2662H259.818C259.818 47.2662 259.835 47.2662 259.844 47.2662V47.2747Z" fill="#292738"/>
<path d="M257.647 21.1401C256.178 22.3522 247.707 27.2929 240.687 25.3907C240.653 25.761 240.645 26.043 240.641 26.2155C240.641 26.3418 240.641 26.4091 240.641 26.4091C247.955 30.2641 258.165 24.3554 259.785 23.0171C263.749 19.6251 270.811 15.3493 271.703 15.0841C270.432 14.6675 269.216 14.3098 268.046 13.9941C268.046 13.9941 268.046 13.9941 268.042 13.9941C268.042 13.9941 268.042 13.9941 268.046 13.9941C265.538 15.4208 260.686 18.5393 257.647 21.1401ZM270.689 14.9495C270.664 14.9368 270.63 14.9284 270.605 14.9242C270.676 14.9074 270.702 14.9116 270.689 14.9495Z" fill="#64D340"/>
<path d="M240.687 25.3905C247.706 27.2927 256.178 22.352 257.647 21.1399C260.685 18.5391 265.538 15.4206 268.046 13.9939C268.046 13.9939 268.046 13.9939 268.042 13.9939C246.208 8.12312 241.764 18.9684 240.868 24.0227C240.775 24.5488 240.72 25.0117 240.687 25.3863V25.3905Z" fill="#63F23B"/>
<path d="M270.604 14.9235C270.63 14.9277 270.663 14.9361 270.689 14.9487C270.701 14.9109 270.676 14.9066 270.604 14.9235Z" fill="#63F23B"/>
<path d="M268.471 13.0465C268.496 13.0507 268.53 13.0591 268.555 13.0717C268.568 13.0339 268.543 13.0297 268.471 13.0465Z" fill="#63F23B"/>
<path d="M229.871 13.1097C229.564 13.177 229.252 13.2401 228.941 13.2822C228.941 13.2822 228.941 13.2822 228.937 13.2822C229.252 13.2359 229.568 13.177 229.879 13.1055C229.879 13.1055 229.875 13.1055 229.871 13.1055V13.1097Z" fill="#57C931"/>
<path d="M231.121 14.0261C231.121 13.8409 231.113 13.399 231.041 12.7888C230.658 12.9193 230.271 13.0245 229.875 13.1129C229.564 13.1844 229.248 13.2433 228.933 13.2896C222.237 14.2491 214.771 9.87233 213.403 8.75287C210.495 6.26567 205.929 3.31132 203.345 1.80469C202.289 2.09507 201.182 2.42754 200.042 2.8021C200.862 3.02514 207.979 7.31358 211.977 10.7351C213.437 11.9387 221.938 16.8963 228.966 14.973C229.703 14.771 230.427 14.4932 231.121 14.1271C231.121 14.1271 231.121 14.0934 231.121 14.0303V14.0261Z" fill="#64D340"/>
<path d="M199.966 2.81095C199.995 2.80254 200.016 2.79413 200.041 2.78993C199.978 2.76891 199.953 2.77311 199.966 2.81095Z" fill="#63F23B"/>
<path d="M231.041 12.7812C230.569 8.4128 227.182 -4.75972 203.345 1.79287C205.929 3.2953 210.495 6.24965 213.403 8.74106C214.771 9.86893 222.237 14.25 228.941 13.282C229.252 13.2357 229.564 13.1768 229.871 13.1095C230.266 13.0211 230.658 12.9159 231.041 12.7854V12.7812Z" fill="#63F23B"/>
<path d="M201.392 0.828523C201.422 0.820116 201.443 0.811709 201.468 0.807506C201.405 0.786488 201.376 0.790691 201.392 0.828523Z" fill="#63F23B"/>
<path d="M44.0459 54.0527C18.1932 54.0527 0 71.9177 0 95.4725C0 119.027 16.7539 137.999 47.5515 137.999C71.4893 137.999 82.8185 121.081 85.0532 112.862H66.3844C64.6295 117.765 57.6056 123.455 46.1164 123.455C28.0873 123.455 19.4684 110.968 19.4684 101.482H86.8124V94.8412C86.9723 73.1802 70.5382 54.0527 44.0459 54.0527ZM19.6283 89.3071C19.6283 78.5545 29.6824 67.806 44.3615 67.806C59.0407 67.806 67.6596 77.4518 67.6596 89.3071H19.6283Z" fill="#292738"/>
<path d="M142.819 122.188C126.225 122.188 116.011 110.488 116.011 95.3126C116.011 80.1368 125.425 69.704 141.704 69.704C156.862 69.704 163.402 79.6613 164.362 82.9818H182.075C180.32 70.4952 167.552 54.0527 142.019 54.0527C116.486 54.0527 99.4126 70.4952 99.4126 95.4725C99.4126 120.45 117.286 137.839 143.139 137.999C168.192 137.839 180.161 121.872 182.555 108.91H164.842C163.882 112.231 157.818 122.188 142.819 122.188Z" fill="#292738"/>
<path d="M261.96 60.3699V49.4152C261.96 48.2411 261.013 47.29 259.843 47.2773C259.835 47.2773 259.827 47.2773 259.818 47.2773H214.758C213.576 47.2773 212.616 48.2369 212.616 49.4195V60.1763C200.491 67.1792 193.24 79.7583 193.24 95.6369C193.24 120.614 210.954 138.004 237.286 138.004C263.619 138.004 281.328 119.823 281.328 95.6369C281.328 80.2633 274.077 67.5453 261.96 60.3741V60.3699ZM237.286 122.037C218.933 122.037 210.794 110.181 210.794 95.6369C210.794 81.0924 218.933 70.0283 237.286 70.0283C255.639 70.0283 263.774 81.2523 263.774 95.6369C263.774 110.021 255.479 122.037 237.286 122.037Z" fill="#63F23B"/>
</g>
<defs>
<clipPath id="clip0_400_6827">
<rect width="281.328" height="138" fill="white"/>
</clipPath>
</defs>
</svg>
