<svg width="20" height="19" viewBox="0 0 20 19" fill="none" xmlns="http://www.w3.org/2000/svg">
<path d="M11.3224 17.5329C11.354 17.4372 11.3793 17.3671 11.4045 17.2969C11.9227 15.6579 12.4345 14.0125 12.9526 12.3735C13.0411 12.0993 13.4645 11.9271 13.812 12.0227C13.8752 12.0419 13.9384 12.061 13.9952 12.0929C14.8356 12.5776 15.7519 12.8901 16.6681 13.1898C17.0662 13.3174 17.4579 13.4896 17.8371 13.6873C18.7533 14.1592 19.2335 14.9181 19.2525 15.964C19.2588 16.4168 19.2651 16.8696 19.2525 17.3288C19.2398 17.9984 18.7659 18.4576 18.1025 18.4576C12.7125 18.4576 7.32261 18.4576 1.93268 18.4576C1.27552 18.4576 0.807933 17.992 0.801614 17.3352C0.795295 16.8632 0.795295 16.3849 0.801614 15.913C0.814252 14.9755 1.23761 14.2676 2.01482 13.7702C2.58983 13.4003 3.22803 13.1898 3.87255 12.9985C4.58657 12.7881 5.28164 12.5266 5.93247 12.1503C6.24841 11.9717 6.55803 11.9909 6.86133 12.1758C7.01299 12.2651 7.10777 12.3863 7.16464 12.5649C7.66382 14.1847 8.17564 15.7982 8.68114 17.4117C8.69378 17.45 8.71274 17.4819 8.76961 17.5201C8.80121 17.3543 8.83912 17.1885 8.86439 17.0227C9.02236 16.1426 9.18033 15.2625 9.33198 14.3824C9.34462 14.3123 9.28143 14.2294 9.26879 14.1528C9.18665 13.6554 9.10451 13.1516 9.04132 12.6541C9.02236 12.5138 9.10451 12.4182 9.26248 12.4182C9.76798 12.4182 10.2798 12.4182 10.7853 12.4182C10.9812 12.4182 11.0444 12.5074 11.0128 12.7434C10.9622 13.1005 10.9054 13.4577 10.8422 13.8148C10.8169 13.9742 10.76 14.1273 10.7158 14.2804C10.7095 14.3059 10.7095 14.3314 10.7095 14.3569C10.8927 15.3901 11.0823 16.4232 11.2719 17.4627C11.2655 17.4755 11.2782 17.4882 11.3224 17.5329Z" fill="#63F23B"/>
<path d="M13.7682 7.17483C13.6481 7.58298 13.5344 7.97203 13.408 8.35468C13.2248 8.91589 12.991 9.45794 12.6624 9.95538C12.1569 10.7015 11.4745 11.1607 10.5772 11.2691C9.61675 11.3839 8.70053 11.2628 7.917 10.625C7.32936 10.1467 6.97551 9.50259 6.72276 8.80745C6.55215 8.3419 6.42577 7.85722 6.28676 7.37891C6.25516 7.27049 6.20461 7.23862 6.10351 7.19398C5.93291 7.11745 5.74334 7.0154 5.64224 6.86234C5.23152 6.26924 5.1557 5.606 5.38317 4.92999C5.44004 4.75143 5.6296 4.62385 5.74334 4.46441C5.79389 4.40064 5.83181 4.31136 5.83813 4.22845C5.86972 3.48229 6.01505 2.76804 6.34995 2.09841C6.89968 1.00787 7.78431 0.344582 8.97224 0.114995C9.99588 -0.0890835 11.0006 -0.0380562 11.961 0.401987C13.1869 0.963202 13.8693 1.97084 14.141 3.27184C14.2105 3.59071 14.2105 3.92235 14.2547 4.2476C14.2674 4.31775 14.3053 4.4198 14.3622 4.45169C14.577 4.5601 14.7034 4.74504 14.7666 4.96187C14.9624 5.61237 14.8929 6.23734 14.5391 6.81769C14.3685 7.08554 14.141 7.27049 13.7682 7.17483Z" fill="#63F23B"/>
</svg>
