<svg width="20" height="19" viewBox="0 0 20 19" fill="none" xmlns="http://www.w3.org/2000/svg">
<path d="M7.76091 3.17815C8.59902 1.17043 9.01808 0.166568 9.69891 0.0274375C9.87793 -0.00914582 10.063 -0.00914582 10.242 0.0274375C10.9228 0.166568 11.3419 1.17043 12.18 3.17815C12.6566 4.3199 12.8949 4.89078 13.3408 5.27907C13.4659 5.38798 13.6017 5.48497 13.7462 5.5687C14.2616 5.86719 14.905 5.92255 16.1918 6.03329C18.3701 6.22074 19.4592 6.31447 19.7918 6.91119C19.8607 7.03478 19.9075 7.16858 19.9304 7.30705C20.0406 7.97562 19.24 8.67559 17.6386 10.0755L17.1939 10.4643C16.4452 11.1188 16.0709 11.446 15.8544 11.8544C15.7245 12.0994 15.6374 12.3632 15.5966 12.6354C15.5286 13.089 15.6382 13.5638 15.8574 14.5133L15.9358 14.8525C16.3289 16.5552 16.5255 17.4066 16.2801 17.8251C16.0597 18.201 15.6537 18.4416 15.2052 18.4622C14.7058 18.4851 14.0023 17.9342 12.5952 16.8325C11.6681 16.1066 11.2046 15.7437 10.69 15.6019C10.2198 15.4723 9.72111 15.4723 9.25087 15.6019C8.7363 15.7437 8.27277 16.1066 7.34571 16.8325C5.9386 17.9342 5.23504 18.4851 4.73573 18.4622C4.28722 18.4416 3.8812 18.201 3.66078 17.8251C3.41538 17.4066 3.61196 16.5552 4.00512 14.8525L4.08345 14.5133C4.30269 13.5638 4.4123 13.089 4.34428 12.6354C4.30347 12.3632 4.21639 12.0994 4.08651 11.8544C3.86999 11.446 3.49566 11.1188 2.74699 10.4643L2.3023 10.0755C0.700939 8.67559 -0.0997424 7.97562 0.0105232 7.30705C0.0333602 7.16858 0.0801942 7.03478 0.149078 6.91119C0.481675 6.31447 1.57082 6.22074 3.7491 6.03329C5.03587 5.92255 5.67926 5.86719 6.19465 5.5687C6.33921 5.48497 6.47499 5.38798 6.60006 5.27907C7.04598 4.89078 7.28429 4.3199 7.76091 3.17815Z" fill="#63F23B"/>
</svg>
