<svg width="19" height="19" viewBox="0 0 19 19" fill="none" xmlns="http://www.w3.org/2000/svg">
<path d="M12.2926 6.49172L9.45001 0.148046C9.36479 -0.0467444 9.10305 -0.0467444 9.01175 0.148046L6.16917 6.49172C6.09004 6.66053 6.21178 6.86182 6.3883 6.86182H7.58133C7.71524 6.86182 7.8248 6.97871 7.8248 7.12156V13.8872C7.8248 14.0301 7.93436 14.1469 8.06827 14.1469H10.3996C10.5335 14.1469 10.643 14.0301 10.643 13.8872V7.12156C10.643 6.97871 10.7526 6.86182 10.8865 6.86182H12.0795C12.25 6.86182 12.3656 6.66703 12.2926 6.49172Z" fill="#63F23B"/>
<path d="M18.4244 10.8042L15.5818 4.46055C15.4966 4.26576 15.2349 4.26576 15.1436 4.46055L12.301 10.8042C12.2219 10.973 12.3436 11.1743 12.5201 11.1743H13.7132C13.8471 11.1743 13.9566 11.2912 13.9566 11.434V18.1997C13.9566 18.3426 14.0662 18.4594 14.2001 18.4594H16.5314C16.6653 18.4594 16.7749 18.3426 16.7749 18.1997V11.434C16.7749 11.2912 16.8844 11.1743 17.0183 11.1743H18.2114C18.3879 11.1743 18.5035 10.9795 18.4244 10.8042Z" fill="#63F23B"/>
<path d="M2.86673 4.46055L0.0241468 10.8042C-0.0549828 10.973 0.0667647 11.1743 0.243285 11.1743H1.43631C1.57022 11.1743 1.67978 11.2912 1.67978 11.434V18.1997C1.67978 18.3426 1.78936 18.4594 1.92327 18.4594H4.25454C4.38845 18.4594 4.49801 18.3426 4.49801 18.1997V11.434C4.49801 11.2912 4.60757 11.1743 4.74149 11.1743H5.93453C6.11105 11.1743 6.22669 10.9795 6.15365 10.8042L3.31108 4.46055C3.21369 4.26576 2.95195 4.26576 2.86673 4.46055Z" fill="#63F23B"/>
</svg>
