<svg width="20" height="20" viewBox="0 0 20 20" fill="none" xmlns="http://www.w3.org/2000/svg">
<path d="M11.3234 18.5329C11.355 18.4372 11.3802 18.3671 11.4055 18.2969C11.9237 16.6579 12.4355 15.0125 12.9536 13.3735C13.0421 13.0993 13.4654 12.9271 13.813 13.0227C13.8762 13.0419 13.9394 13.061 13.9962 13.0929C14.8366 13.5776 15.7529 13.8901 16.6691 14.1898C17.0672 14.3174 17.4589 14.4896 17.8381 14.6873C18.7543 15.1592 19.2345 15.9181 19.2535 16.964C19.2598 17.4168 19.2661 17.8696 19.2535 18.3288C19.2408 18.9984 18.7669 19.4576 18.1034 19.4576C12.7135 19.4576 7.32358 19.4576 1.93365 19.4576C1.2765 19.4576 0.808909 18.992 0.802591 18.3352C0.796272 17.8632 0.796272 17.3849 0.802591 16.913C0.815228 15.9755 1.23859 15.2676 2.0158 14.7702C2.59081 14.4003 3.22901 14.1898 3.87353 13.9985C4.58755 13.7881 5.28261 13.5266 5.93345 13.1503C6.24939 12.9717 6.55901 12.9909 6.86231 13.1758C7.01396 13.2651 7.10875 13.3863 7.16562 13.5649C7.6648 15.1847 8.17662 16.7982 8.68212 18.4117C8.69476 18.45 8.71372 18.4819 8.77059 18.5201C8.80218 18.3543 8.84009 18.1885 8.86537 18.0227C9.02334 17.1426 9.18131 16.2625 9.33296 15.3824C9.3456 15.3123 9.28241 15.2294 9.26977 15.1528C9.18762 14.6554 9.10548 14.1516 9.0423 13.6541C9.02334 13.5138 9.10548 13.4182 9.26345 13.4182C9.76896 13.4182 10.2808 13.4182 10.7863 13.4182C10.9822 13.4182 11.0454 13.5074 11.0138 13.7434C10.9632 14.1005 10.9063 14.4577 10.8432 14.8148C10.8179 14.9742 10.761 15.1273 10.7168 15.2804C10.7105 15.3059 10.7105 15.3314 10.7105 15.3569C10.8937 16.3901 11.0833 17.4232 11.2728 18.4627C11.2665 18.4755 11.2791 18.4882 11.3234 18.5329Z" stroke="#C1C1C1" stroke-miterlimit="10"/>
<path d="M13.7692 8.17483C13.6491 8.58298 13.5354 8.97203 13.409 9.35468C13.2258 9.91589 12.992 10.4579 12.6634 10.9554C12.1579 11.7015 11.4755 12.1607 10.5782 12.2691C9.61773 12.3839 8.70151 12.2628 7.91798 11.625C7.33033 11.1467 6.97648 10.5026 6.72373 9.80745C6.55312 9.3419 6.42675 8.85722 6.28773 8.37891C6.25614 8.27049 6.20559 8.23862 6.10449 8.19398C5.93388 8.11745 5.74432 8.0154 5.64322 7.86234C5.2325 7.26924 5.15667 6.606 5.38415 5.92999C5.44102 5.75143 5.63058 5.62385 5.74432 5.46441C5.79487 5.40064 5.83278 5.31136 5.8391 5.22845C5.8707 4.48229 6.01603 3.76804 6.35092 3.09841C6.90066 2.00787 7.78529 1.34458 8.97322 1.11499C9.99686 0.910916 11.0015 0.961944 11.962 1.40199C13.1878 1.9632 13.8703 2.97084 14.142 4.27184C14.2115 4.59071 14.2115 4.92235 14.2557 5.2476C14.2684 5.31775 14.3063 5.4198 14.3631 5.45169C14.578 5.5601 14.7043 5.74504 14.7675 5.96187C14.9634 6.61237 14.8939 7.23734 14.5401 7.81769C14.3695 8.08554 14.142 8.27049 13.7692 8.17483Z" stroke="#C1C1C1" stroke-miterlimit="10"/>
</svg>
