<svg width="22" height="20" viewBox="0 0 22 20" fill="none" xmlns="http://www.w3.org/2000/svg">
<path d="M8.7614 4.17815C9.59951 2.17043 10.0186 1.16657 10.6994 1.02744C10.8784 0.990854 11.0634 0.990854 11.2425 1.02744C11.9233 1.16657 12.3424 2.17043 13.1805 4.17815C13.6571 5.3199 13.8954 5.89078 14.3413 6.27907C14.4664 6.38798 14.6022 6.48497 14.7467 6.5687C15.2621 6.86719 15.9055 6.92256 17.1923 7.03329C19.3706 7.22074 20.4597 7.31447 20.7923 7.91119C20.8612 8.03478 20.908 8.16858 20.9309 8.30705C21.0411 8.97562 20.2404 9.67559 18.6391 11.0755L18.1944 11.4643C17.4457 12.1188 17.0714 12.446 16.8549 12.8544C16.725 13.0994 16.6379 13.3632 16.5971 13.6354C16.5291 14.089 16.6387 14.5638 16.8579 15.5133L16.9363 15.8525C17.3294 17.5552 17.526 18.4066 17.2806 18.8251C17.0602 19.201 16.6542 19.4416 16.2057 19.4622C15.7063 19.4851 15.0028 18.9342 13.5957 17.8325C12.6686 17.1066 12.2051 16.7437 11.6905 16.6019C11.2203 16.4723 10.7216 16.4723 10.2514 16.6019C9.73678 16.7437 9.27326 17.1066 8.3462 17.8325C6.93909 18.9342 6.23553 19.4851 5.73622 19.4622C5.28771 19.4416 4.88169 19.201 4.66127 18.8251C4.41587 18.4066 4.61245 17.5552 5.00561 15.8525L5.08394 15.5133C5.30318 14.5638 5.41279 14.089 5.34477 13.6354C5.30396 13.3632 5.21688 13.0994 5.08699 12.8544C4.87048 12.446 4.49614 12.1188 3.74748 11.4643L3.30279 11.0755C1.70143 9.67559 0.900746 8.97562 1.01101 8.30705C1.03385 8.16858 1.08068 8.03478 1.14957 7.91119C1.48216 7.31447 2.5713 7.22074 4.74959 7.03329C6.03636 6.92256 6.67975 6.86719 7.19514 6.5687C7.3397 6.48497 7.47547 6.38798 7.60055 6.27907C8.04646 5.89078 8.28477 5.3199 8.7614 4.17815Z" stroke="#C1C1C1"/>
</svg>
